<?xml version="1.0"?>
<svg xmlns="http://www.w3.org/2000/svg" height="512px" viewBox="0 0 64 64" width="512px" class=""><g><g id="away-take-coffee-cup-Beverage"><path d="m19 21h35v40h-35z" fill="#f7d880" data-original="#F7D880" class="" style="fill:#E0AC9D" data-old_color="#f7d880"/><path d="m54 21h-35l-8-12h36z" fill="#f6c850" data-original="#F6C850" class="" style="fill:#F5BCAC" data-old_color="#f6c850"/><path d="m19 61h-16l8-6z" fill="#dd5528" data-original="#DD5528" class="" style="fill:#A37774" data-old_color="#dd5528"/><path d="m11 9v46l-8 6v-40z" fill="#ef8746" data-original="#EF8746" class="" style="fill:#C28D89" data-old_color="#ef8746"/><path d="m19 21v40l-8-6v-46z" fill="#f2ac4c" data-original="#F2AC4C" class="" style="fill:#CF8974" data-old_color="#f2ac4c"/><path d="m11 3h36v6h-36z" fill="#f2ac4c" data-original="#F2AC4C" class="" style="fill:#CF8974" data-old_color="#f2ac4c"/><path d="m25 33h15v15h-15z" fill="#fff" data-original="#FFF" class="active-path" data-old_color="#fff" style="fill:#E9D8D4"/><path d="m33 24h28v5h-28z" fill="#3780ea" data-original="#3780EA" class="" style="fill:#7247D8" data-old_color="#3780ea"/><path d="m35.13 33-.13-4h24l-.25 8h-23.5z" fill="#e1ecfd" data-original="#E1ECFD" class="" style="fill:#DBD6E6" data-old_color="#e1ecfd"/><path d="m59 19v5h-24v-5h13l3-3h4l1 3z" fill="#5bcbfa" data-original="#5BCBFA" class="" style="fill:#9365FF" data-old_color="#5bcbfa"/><path d="m58.25 53-.25 8h-22l-.25-8z" fill="#e1ecfd" data-original="#E1ECFD" class="" style="fill:#DBD6E6" data-old_color="#e1ecfd"/><path d="m58.75 37-.5 16h-22.5l-.5-16z" fill="#3780ea" data-original="#3780EA" class="" style="fill:#7247D8" data-old_color="#3780ea"/><path d="m61 23h-1v-4a1 1 0 0 0 -1-1h-2.28l-.77-2.32a1.014 1.014 0 0 0 -.95-.68h-3.13l-3.87-6.28v-5.72a1 1 0 0 0 -1-1h-36a1 1 0 0 0 -1 1v5.7l-7.83 11.75a.967.967 0 0 0 -.17.55v40a1 1 0 0 0 1 1h55a1 1 0 0 0 1-.97l.97-31.03h1.03a1 1 0 0 0 1-1v-5a1 1 0 0 0 -1-1zm-6.72-6 .77 2.32a1.014 1.014 0 0 0 .95.68h2v3h-22v-3h12a1.033 1.033 0 0 0 .71-.29l2.7-2.71zm-42.28-13h34v4h-34zm-6 56 5-3.75 5 3.75zm12-1-6-4.5v-31.5h-2v31.5l-6 4.5v-37.7l6-9v8.7h2v-8.7l6 9zm-5.13-49h33.57l3.49 5.66-2.34 2.34h-12.59a1 1 0 0 0 -1 1v1h-14.46zm7.13 50v-38h14v1h-1a1 1 0 0 0 -1 1v5a1 1 0 0 0 1 1h1.03l.06 2h-9.09a1 1 0 0 0 -1 1v15a1 1 0 0 0 1 1h9.62l.35 11zm14.16-26 .4 13h-8.56v-13zm22.87 26h-20.06l-.19-6h20.44zm.25-8h-20.56l-.44-14h21.44zm.5-16h-21.56l-.19-6h21.94zm2.22-8h-26v-3h26z" data-original="#000000" class="" style="fill:#000000"/><path d="m28 36h4v2h-4z" data-original="#000000" class="" style="fill:#000000"/><path d="m28 40h5v2h-5z" data-original="#000000" class="" style="fill:#000000"/></g></g> </svg>
